<?xml version="1.0" standalone="no"?><!DOCTYPE svg PUBLIC "-//W3C//DTD SVG 1.1//EN" "http://www.w3.org/Graphics/SVG/1.1/DTD/svg11.dtd"><svg class="icon" width="48px" height="48.00px" viewBox="0 0 1024 1024" version="1.1" xmlns="http://www.w3.org/2000/svg"><path d="M768 128H256a128 128 0 0 0-128 128v512a128 128 0 0 0 128 128h512a128 128 0 0 0 128-128V256a128 128 0 0 0-128-128z" fill="#C391F7" /><path d="M768 853.333333H256a85.333333 85.333333 0 0 1-85.333333-85.333333V256a85.333333 85.333333 0 0 1 85.333333-85.333333h512a85.333333 85.333333 0 0 1 85.333333 85.333333v512a85.333333 85.333333 0 0 1-85.333333 85.333333z" fill="#5C1D9C" /><path d="M519.402667 682.645333h-45.418667a10.666667 10.666667 0 0 1-10.368-8.128l-15.68-64.149333a10.666667 10.666667 0 0 0-10.368-8.128h-81.408a10.666667 10.666667 0 0 0-10.368 8.149333l-15.509333 64.106667a10.666667 10.666667 0 0 1-10.368 8.149333H274.986667a10.666667 10.666667 0 0 1-10.282667-13.525333l94.570667-340.16a10.666667 10.666667 0 0 1 10.282666-7.808h57.472a10.666667 10.666667 0 0 1 10.304 7.872l92.373334 340.16a10.688 10.688 0 0 1-10.304 13.461333zM418.112 539.733333a10.666667 10.666667 0 0 0 10.368-13.205333l-26.432-108.309333a203.242667 203.242667 0 0 1-4.608-32.512h-1.536c-0.64 10.602667-2.24 21.098667-4.821333 31.509333l-26.794667 109.312a10.666667 10.666667 0 0 0 10.368 13.205333h43.456zM734.101333 569.962667h-105.941333a10.901333 10.901333 0 0 0-10.517333 13.013333c5.269333 28.8 22.784 43.2 52.608 43.2 15.018667 0 28.757333-3.221333 41.258666-9.664 7.274667-3.754667 15.914667 1.024 15.914667 9.194667v31.786666a10.773333 10.773333 0 0 1-4.992 9.237334c-17.493333 10.602667-39.488 15.914667-66.026667 15.914666-31.829333 0-56.533333-11.562667-74.133333-34.666666-17.578667-23.104-26.368-55.338667-26.368-96.682667 0-42.858667 9.493333-76.8 28.501333-101.845333 18.986667-25.045333 42.346667-37.568 70.058667-37.568 28.757333 0 50.986667 11.178667 66.709333 33.536 15.701333 22.357333 23.573333 52.693333 23.573334 91.008v22.869333a10.624 10.624 0 0 1-10.645334 10.666667z m-56.810666-48.896a10.602667 10.602667 0 0 0 10.688-11.093334c-2.154667-29.589333-13.44-44.373333-33.877334-44.373333-9.770667 0-18.218667 5.290667-25.322666 15.872a76.778667 76.778667 0 0 0-10.88 26.133333 10.88 10.88 0 0 0 10.389333 13.461334h49.002667z" fill="#FFFFFF" /></svg>