<?xml version="1.0" standalone="no"?><!DOCTYPE svg PUBLIC "-//W3C//DTD SVG 1.1//EN" "http://www.w3.org/Graphics/SVG/1.1/DTD/svg11.dtd"><svg class="icon" width="48px" height="48.00px" viewBox="0 0 1024 1024" version="1.1" xmlns="http://www.w3.org/2000/svg"><path d="M148.48 153.6h169.472L245.76 223.744l222.72 223.744v18.944h-18.432L227.328 242.688 148.48 321.536z" fill="#73D216" /><path d="M712.192 153.6h165.376v163.328L803.328 240.64l-227.328 227.84h-18.432v-18.432l226.816-228.352z" fill="#A3448D" /><path d="M557.568 555.52h18.432l222.72 223.744 78.848-78.848V870.4h-169.472l74.24-74.24-224.768-222.208z" fill="#EFAD35" /><path d="M450.048 555.52h18.432v18.432l-226.816 228.352 72.192 72.704H148.48v-165.888l74.24 74.24z" fill="#252476" /><path d="M148.48 365.056l78.848-78.848 179.2 180.224h-256z" fill="#73D216" /><path d="M406.528 555.52L225.28 737.792 150.528 665.6v-108.032h256z" fill="#252476" /><path d="M0 512l115.712-114.176v102.4h320l12.288 12.288-12.288 12.288H117.76v105.984z m621.568-47.616l181.76-182.272L877.568 358.4v105.984l-256 2.048z" fill="#A3448D" /><path d="M877.568 656.896l-78.848 78.848-179.2-180.224h256z" fill="#EFAD35" /><path d="M576 512l12.288-12.288h320V393.728L1024 512l-115.712 116.224v-102.4h-320z" fill="#252476" /><path d="M557.568 620.032l179.712 180.224-74.752 74.752h-102.4z" fill="#EFAD35" /><path d="M499.712 586.752l12.288-12.8 12.288 12.8v316.928h105.472L512 1024l-121.856-118.272h109.568z" fill="#73D216" /><path d="M286.72 802.304l181.76-182.272V870.4H358.4z" fill="#252476" /><path d="M557.568 403.968l179.712-180.224-74.752-74.752h-102.4z" fill="#A3448D" /><path d="M499.712 437.248l12.288 12.8 12.288-12.8V120.32h105.472L512 0 390.144 120.32h109.568z" fill="#EFAD35" /><path d="M286.72 223.744l181.76 182.784V153.6H358.4z" fill="#73D216" /></svg>