<?xml version="1.0" standalone="no"?><!DOCTYPE svg PUBLIC "-//W3C//DTD SVG 1.1//EN" "http://www.w3.org/Graphics/SVG/1.1/DTD/svg11.dtd"><svg class="icon" width="48px" height="48.00px" viewBox="0 0 1024 1024" version="1.1" xmlns="http://www.w3.org/2000/svg"><path d="M428.8 345.6l2.133333 49.066667-34.133333 64-53.333333 104.533333-10.666667 87.466667 38.4 123.733333 87.466667 49.066667h132.266666l123.733334-93.866667 55.466666-147.2-128-155.733333-36.266666-87.466667z" fill="#ECEFF1" /><path d="M731.733333 467.2c-34.133333-49.066667-61.866667-78.933333-76.8-140.8-14.933333-61.866667 4.266667-44.8-8.533333-98.133333-6.4-27.733333-17.066667-46.933333-27.733333-61.866667-12.8-14.933333-27.733333-23.466667-36.266667-25.6-19.2-10.666667-64-27.733333-119.466667 2.133333-57.6 29.866667-51.2 93.866667-40.533333 224 0 8.533333-2.133333 19.2-6.4 27.733334-8.533333 19.2-23.466667 36.266667-36.266667 51.2-14.933333 21.333333-29.866667 42.666667-40.533333 66.133333-25.6 49.066667-49.066667 110.933333-42.666667 134.4 10.666667-2.133333 145.066667 202.666667 145.066667 206.933333 8.533333-2.133333 44.8-2.133333 76.8-2.133333 44.8-2.133333 70.4-4.266667 106.666667 4.266667 0-6.4-2.133333-12.8-2.133334-19.2 0-12.8 2.133333-23.466667 4.266667-38.4 2.133333-10.666667 4.266667-21.333333 6.4-34.133334-21.333333 19.2-59.733333 40.533333-96 46.933334-32 6.4-85.333333-4.266667-110.933333-36.266667 2.133333 0 6.4 0 8.533333-2.133333 6.4-2.133333 12.8-4.266667 14.933333-8.533334 6.4-10.666667 2.133333-21.333333-2.133333-27.733333-4.266667-6.4-36.266667-29.866667-51.2-42.666667-14.933333-12.8-23.466667-19.2-32-27.733333l-17.066667-17.066667c-4.266667-4.266667-6.4-8.533333-8.533333-10.666666-4.266667-10.666667-6.4-23.466667-4.266667-40.533334 2.133333-23.466667 10.666667-42.666667 21.333334-64 4.266667-8.533333 14.933333-25.6 14.933333-25.6s-36.266667 89.6-17.066667 117.333334c0 0 2.133333-27.733333 10.666667-55.466667 6.4-19.2 17.066667-46.933333 29.866667-61.866667s44.8-70.4 46.933333-104.533333c0-14.933333 2.133333-29.866667 2.133333-40.533333-8.533333-8.533333 140.8-29.866667 149.333334-6.4 2.133333 8.533333 32 85.333333 49.066666 125.866666 8.533333 19.2 19.2 36.266667 25.6 57.6 6.4 23.466667 10.666667 55.466667 10.666667 87.466667 0 6.4 0 17.066667-2.133333 27.733333 4.266667 0 87.466667-89.6-10.666667-164.266666 0 0 59.733333 27.733333 61.866667 83.2 2.133333 44.8-17.066667 81.066667-21.333334 87.466666 2.133333 0 44.8 19.2 46.933334 19.2 8.533333 0 25.6-6.4 25.6-6.4 2.133333-6.4 8.533333-23.466667 8.533333-29.866666 14.933333-49.066667-21.333333-128-55.466667-177.066667z" fill="#263238" /><path d="M433.066667 283.733333a42.666667 27.733333 90 1 0 55.466666 0 42.666667 27.733333 90 1 0-55.466666 0Z" fill="#ECEFF1" /><path d="M520.533333 281.6a49.066667 36.266667 90 1 0 72.533334 0 49.066667 36.266667 90 1 0-72.533334 0Z" fill="#ECEFF1" /><path d="M464.702513 313.91948a25.6 14.933333 82.796 1 0-6.420608-50.795825 25.6 14.933333 82.796 1 0 6.420608 50.795825Z" fill="#212121" /><path d="M533.333333 290.133333a27.733333 21.333333 90 1 0 42.666667 0 27.733333 21.333333 90 1 0-42.666667 0Z" fill="#212121" /><path d="M838.4 759.466667c-8.533333-4.266667-23.466667-10.666667-36.266667-29.866667-6.4-10.666667-4.266667-40.533333-14.933333-53.333333-6.4-8.533333-14.933333-4.266667-17.066667-4.266667-19.2 4.266667-64 34.133333-93.866666 0-4.266667-4.266667-10.666667-10.666667-21.333334-10.666667s-14.933333 4.266667-19.2 12.8-4.266667 14.933333-4.266666 36.266667c0 17.066667 0 36.266667-2.133334 51.2-4.266667 36.266667-10.666667 57.6-10.666666 78.933333 0 23.466667 6.4 38.4 14.933333 44.8 6.4 6.4 17.066667 10.666667 40.533333 10.666667 23.466667 0 38.4-8.533333 53.333334-23.466667 10.666667-10.666667 19.2-14.933333 49.066666-36.266666 23.466667-14.933333 59.733333-34.133333 66.133334-40.533334 4.266667-4.266667 10.666667-6.4 10.666666-19.2 0-10.666667-8.533333-14.933333-14.933333-17.066666zM409.6 765.866667c-21.333333-34.133333-23.466667-40.533333-38.4-61.866667-12.8-21.333333-40.533333-61.866667-57.6-61.866667-12.8 0-19.2 6.4-27.733333 14.933334-8.533333 8.533333-17.066667 27.733333-32 38.4-12.8 10.666667-49.066667 8.533333-57.6 21.333333-8.533333 12.8 8.533333 32 8.533333 64 0 12.8-10.666667 21.333333-12.8 29.866667-2.133333 10.666667-4.266667 17.066667 0 25.6 8.533333 12.8 19.2 17.066667 91.733333 32 38.4 8.533333 74.666667 29.866667 98.133334 32 23.466667 2.133333 64 0 64-57.6 2.133333-34.133333-17.066667-42.666667-36.266667-76.8zM450.133333 379.733333c-12.8-8.533333-23.466667-17.066667-23.466666-29.866666 0-12.8 8.533333-17.066667 21.333333-27.733334 2.133333-2.133333 25.6-23.466667 49.066667-23.466666s51.2 14.933333 61.866666 19.2c19.2 4.266667 38.4 8.533333 36.266667 23.466666-2.133333 21.333333-4.266667 25.6-25.6 36.266667-14.933333 4.266667-42.666667 27.733333-61.866667 27.733333-8.533333 0-21.333333 0-29.866666-2.133333-6.4-2.133333-17.066667-12.8-27.733334-23.466667z" fill="#FFC107" /><path d="M445.866667 362.666667c4.266667 4.266667 10.666667 8.533333 17.066666 10.666666 4.266667 2.133333 10.666667 4.266667 10.666667 4.266667h19.2c10.666667 0 25.6-4.266667 40.533333-12.8 14.933333-6.4 17.066667-10.666667 27.733334-14.933333 10.666667-6.4 21.333333-12.8 17.066666-14.933334-4.266667-2.133333-8.533333 0-23.466666 8.533334-12.8 8.533333-23.466667 12.8-36.266667 19.2-6.4 2.133333-14.933333 6.4-21.333333 6.4h-19.2c-6.4 0-10.666667-2.133333-17.066667-4.266667-4.266667-2.133333-6.4-4.266667-8.533333-4.266667-4.266667-2.133333-12.8-10.666667-17.066667-12.8 0 0-4.266667 0-2.133333 2.133334l12.8 12.8zM509.866667 315.733333c2.133333 4.266667 6.4 4.266667 8.533333 6.4 2.133333 2.133333 4.266667 2.133333 4.266667 2.133334 2.133333-2.133333 0-6.4-2.133334-6.4 0-4.266667-10.666667-4.266667-10.666666-2.133334zM475.733333 320c0 2.133333 4.266667 4.266667 4.266667 2.133333 2.133333-2.133333 4.266667-4.266667 6.4-4.266666 4.266667-2.133333 2.133333-4.266667-4.266667-4.266667-4.266667 2.133333-4.266667 4.266667-6.4 6.4z" fill="#634703" /><path d="M682.666667 697.6v6.4c4.266667 8.533333 14.933333 10.666667 23.466666 10.666667 12.8 0 25.6-8.533333 32-17.066667 0-2.133333 2.133333-4.266667 4.266667-6.4 4.266667-6.4 6.4-10.666667 8.533333-12.8 0 0-2.133333-2.133333-2.133333-4.266667-2.133333-4.266667-8.533333-8.533333-17.066667-10.666666-6.4-2.133333-17.066667-4.266667-21.333333-4.266667-19.2-2.133333-29.866667 4.266667-36.266667 10.666667 0 0 2.133333 0 2.133334 2.133333 4.266667 4.266667 6.4 8.533333 6.4 14.933333 2.133333 4.266667 0 6.4 0 10.666667z" fill="#455A64" /></svg>