<?xml version="1.0" standalone="no"?><!DOCTYPE svg PUBLIC "-//W3C//DTD SVG 1.1//EN" "http://www.w3.org/Graphics/SVG/1.1/DTD/svg11.dtd"><svg class="icon" width="48px" height="48.00px" viewBox="0 0 1024 1024" version="1.1" xmlns="http://www.w3.org/2000/svg"><path d="M229.973333 682.666667s26.88-10.24 47.786667-49.066667 80.213333-72.106667 98.133333-78.08 43.946667-20.48 103.68-32.426667 118.186667-30.293333 153.173334-69.12 74.24-109.226667 74.24-109.226666 37.546667-64.853333 87.893333-76.373334 75.093333-15.36 88.32-20.48 13.226667-6.4 27.306667-8.96 19.2 12.8 19.2 12.8a114.346667 114.346667 0 0 1-7.68 34.986667c-6.826667 15.36-32.426667 37.12-52.906667 52.053333a133.546667 133.546667 0 0 0-51.626667 89.173334 666.453333 666.453333 0 0 1-17.92 84.48l-26.88 91.733333s-17.493333 73.386667 27.733334 96c-22.186667 15.786667-77.653333 17.493333-102.826667-14.933333-40.96 13.653333-48.213333 51.626667-75.093333 66.133333s-58.026667 37.973333-100.693334 34.133333c38.4-48.64 53.333333-85.333333 53.333334-85.333333s-163.413333-22.613333-207.786667-14.506667-49.493333 8.106667-90.026667 35.413334-59.306667 46.933333-106.666666 46.933333-57.6-3.84-59.306667-13.226667 34.56-30.72 34.56-30.72a235.093333 235.093333 0 0 1-32.426667-4.266666 54.186667 54.186667 0 0 1-13.226666-5.546667s18.346667-21.76 60.16-23.893333a608.426667 608.426667 0 0 0 68.266666-6.826667z" fill="#C59D6C" /><path d="M660.906667 429.653333c-2.986667 14.08-29.013333 56.746667-77.226667 76.8s-141.226667 40.106667-165.973333 47.36-96.426667 46.08-105.813334 56.32a104.533333 104.533333 0 0 1-29.866666 16.213334s27.733333-39.68 52.053333-49.066667 104.533333-45.653333 104.533333-45.653333 86.186667-14.08 108.8-26.88 66.133333-31.146667 80.213334-48.213334a125.44 125.44 0 0 1 33.28-26.88z" fill="#FCF9F5" /><path d="M764.586667 281.173333a137.813333 137.813333 0 0 1 46.08-6.4c23.466667 1.28 66.133333-8.533333 77.653333-18.346666s3.413333-8.533333 3.413333-8.533334-94.72 11.093333-110.933333 20.48-16.213333 12.8-16.213333 12.8z" fill="#FFFFFF" /><path d="M240.64 708.693333c16.64-4.266667 58.026667-29.44 103.68-40.106666 63.146667-14.506667 128-16.64 170.24-19.2 60.586667-3.84 171.093333-5.546667 206.08-44.373334s82.346667-203.946667 96.853333-177.493333-45.226667 176.213333-45.226666 176.213333-17.493333 73.386667 27.733333 96c-22.186667 15.786667-77.653333 17.493333-102.826667-14.933333-40.96 13.653333-48.213333 51.626667-75.093333 66.133333s-58.026667 37.973333-100.693333 34.133334c38.4-48.64 53.333333-85.333333 53.333333-85.333334s-163.413333-22.613333-207.786667-14.506666-49.493333 8.106667-90.026666 35.413333-59.306667 46.933333-106.666667 46.933333-57.6-3.84-59.306667-13.226666 34.56-30.72 34.56-30.72a651.52 651.52 0 0 0 95.146667-14.933334z" fill="#997A4D" /><path d="M882.773333 271.36a119.04 119.04 0 0 0-26.026666 45.226667c0 7.68 1.28 4.266667 2.986666 2.133333 1.28-12.373333 14.933333-34.133333 25.173334-45.226667s2.133333-6.826667-2.133334-2.133333z"  /><path d="M933.12 246.613333s-4.693333-15.786667-19.626667-13.226666-14.506667 3.84-28.16 9.386666-40.533333 3.84-91.733333 15.36-92.16 79.786667-92.16 79.786667-39.68 71.253333-75.52 110.933333-93.866667 57.173333-154.453333 69.546667-87.04 26.88-105.386667 33.28S290.133333 596.053333 268.8 635.733333s-45.653333 44.8-45.653333 44.8-29.013333 3.413333-71.68 5.546667-61.013333 28.16-61.013334 28.16l9.813334 8.96c6.4 5.546667 32.853333 4.266667 32.853333 4.266667s-31.573333 19.2-29.866667 29.013333 6.826667 15.786667 55.466667 15.786667 73.386667-15.786667 114.773333-43.093334 45.226667-30.293333 90.88-38.4 197.973333 17.493333 197.973334 17.493334-12.8 32.426667-51.626667 81.92c43.52 3.84 87.04-14.933333 114.346667-29.866667s29.44-58.026667 71.253333-72.106667c23.466667 40.96 97.706667 32.426667 112.64 12.8-46.506667-23.04-30.72-93.44-30.72-93.44l25.173333-93.013333a642.133333 642.133333 0 0 0 20.48-90.026667c6.4-45.226667 34.56-70.826667 55.466667-86.186666s41.813333-36.266667 48.64-52.053334 5.12-39.68 5.12-39.68z m-149.333333 453.546667c-39.68 4.266667-55.466667-9.386667-64.853334-17.92 0.853333-15.36 40.96-51.626667 40.96-51.626667s6.826667 51.626667 23.466667 69.546667z m117.333333-391.253333c-17.493333 19.2-46.08 30.72-65.28 52.053333s-30.293333 90.453333-30.293333 90.453333-2.133333 39.253333-32.426667 117.333334-74.24 98.986667-74.24 98.986666 0-39.253333-8.533333-41.386666c-2.133333 24.746667-43.52 88.746667-55.893334 101.12s-55.04 41.813333-93.44 46.933333c50.773333-74.666667 53.76-105.813333 53.76-105.813333s8.106667-50.773333 3.84-50.773334-12.373333 10.24-12.373333 10.24-14.933333 53.76-28.586667 59.306667-85.76-0.853333-96-4.266667-69.973333-6.826667-69.973333-6.826666-67.84 3.84-98.986667 28.16-64 36.693333-71.253333 40.106666-22.186667 9.386667-48.213333 13.226667a128.853333 128.853333 0 0 1-55.04-2.56c-6.4-3.413333 14.933333-12.8 19.2-15.36s13.653333-11.093333 13.653333-20.053333c-12.373333 3.84-45.653333-0.426667-45.653333-5.546667 8.96-11.52 21.76-17.066667 86.186666-20.48s61.866667-21.333333 76.8-36.266667c22.186667-29.866667 29.866667-51.626667 76.373334-79.786666 76.8-40.96 83.626667-33.28 180.48-61.44s109.653333-54.186667 120.746666-64.853334 19.626667-25.6 57.173334-91.733333c38.826667-56.32 45.653333-67.413333 93.44-89.6 27.733333-13.653333 69.546667 0 91.733333-15.36 3.84 17.92 29.866667 16.64 29.866667 16.64s0.426667 18.346667-17.066667 37.546667z"  /><path d="M802.986667 289.706667a26.453333 26.453333 0 0 0-13.653334 19.2s11.52 13.653333 30.293334 1.706666 10.666667-25.6 10.666666-25.6a53.76 53.76 0 0 0-27.306666 4.693334zM878.506667 266.666667a154.026667 154.026667 0 0 0-31.573334 47.36c-2.986667 9.813333 1.28 4.266667 2.986667 1.706666 4.693333-15.36 21.76-36.693333 32-48.213333s0.853333-5.546667-3.413333-0.853333zM886.613333 274.773333a91.733333 91.733333 0 0 0-17.493333 44.373334c0 7.68 2.133333 2.986667 3.84 0.853333a94.72 94.72 0 0 1 16.213333-42.666667c5.12-5.546667 1.28-7.253333-2.56-2.56z"  /><path d="M890.88 278.186667c-13.226667 23.466667-9.813333 32.426667-11.946667 43.093333s2.133333 1.28 3.413334-0.853333c0.853333-11.946667 1.28-25.6 10.24-38.826667 3.84-5.12 2.56-8.106667-1.706667-3.413333z"  /></svg>