<?xml version="1.0" standalone="no"?><!DOCTYPE svg PUBLIC "-//W3C//DTD SVG 1.1//EN" "http://www.w3.org/Graphics/SVG/1.1/DTD/svg11.dtd"><svg class="icon" width="48px" height="48.00px" viewBox="0 0 1024 1024" version="1.1" xmlns="http://www.w3.org/2000/svg"><path d="M0 0h1024v1024H0z" fill="#D8D8D8" fill-opacity="0" /><path d="M804.584727 428.683636H608.814545c-15.639273-2.466909-27.578182-20.875636-27.578181-42.542545V111.988364c0-23.389091-14.196364-42.170182-31.604364-42.170182h-68.514909c-17.524364 0-31.604364 18.990545-31.604364 42.170182v277.038545c-0.861091 20.875636-13.777455 37.748364-29.300363 39.68h-51.293091c-15.080727-2.490182-26.717091-19.362909-27.694546-39.68V111.988364C341.178182 88.599273 326.935273 69.818182 309.550545 69.818182h-68.514909C223.534545 69.818182 209.454545 88.808727 209.454545 111.988364v800.023272C209.454545 935.400727 223.674182 954.181818 241.058909 954.181818H804.747636c17.524364 0 31.604364-18.990545 31.604364-42.170182V470.877091c-0.162909-23.389091-14.242909-42.170182-31.767273-42.170182z m-90.205091 302.545455c0 23.389091-14.196364 42.170182-31.604363 42.170182h-68.514909c-17.524364 0-31.604364-18.990545-31.604364-42.170182v-86.272c0-23.389091 14.219636-42.193455 31.604364-42.193455h68.514909c17.524364 0 31.604364 18.990545 31.604363 42.193455v86.272z" fill="#FF6600" /></svg>