<?xml version="1.0" standalone="no"?><!DOCTYPE svg PUBLIC "-//W3C//DTD SVG 1.1//EN" "http://www.w3.org/Graphics/SVG/1.1/DTD/svg11.dtd"><svg class="icon" width="48px" height="48.00px" viewBox="0 0 1024 1024" version="1.1" xmlns="http://www.w3.org/2000/svg"><path d="M512 512m-512 0a512 512 0 1 0 1024 0 512 512 0 1 0-1024 0Z" fill="#2F9FDA" /><path d="M650.410667 704.648533L730.897067 325.290667c3.2768-16.042667 1.365333-27.5456-5.768534-34.474667-7.099733-6.929067-16.4864-8.192-28.194133-3.822933l-472.951467 182.272c-10.581333 4.027733-17.749333 8.567467-21.6064 13.687466-3.822933 5.12-4.3008 9.9328-1.365333 14.506667 2.901333 4.573867 8.738133 8.123733 17.5104 10.683733l120.968533 37.751467 280.814934-176.810667c7.68-5.12 13.5168-6.178133 17.5104-3.2768 2.56 1.8432 1.8432 4.573867-2.184534 8.192l-227.157333 205.312-8.772267 124.791467c8.3968 0 16.622933-3.9936 24.644267-12.049067l59.118933-56.9344 122.606934 90.350934c23.381333 13.1072 38.161067 6.178133 44.373333-20.821334z" fill="#FFFFFF" /></svg>