<?xml version="1.0" standalone="no"?><!DOCTYPE svg PUBLIC "-//W3C//DTD SVG 1.1//EN" "http://www.w3.org/Graphics/SVG/1.1/DTD/svg11.dtd"><svg class="icon" width="48px" height="48.00px" viewBox="0 0 1024 1024" version="1.1" xmlns="http://www.w3.org/2000/svg"><path d="M512.2 638.6c-2.5 15.5-4.3 29.4-9.9 42.3-26 60.4-70.3 97.1-136.8 104.4-78.5 8.7-151.1-39.8-172.9-115.1-7.9-27.3-7.1-55.1-4.2-82.9 3.1-29.7 11.8-57.8 25.4-84.3 2-3.8 1.9-6.7-0.5-10.3-21-31.5-29.1-66.3-26.1-103.9 1.6-20.1 6.5-39.3 15.6-57.3 26.7-52.7 85.3-97.5 163.8-90 69 6.5 132.9 66.1 142.9 133 0.5 3.4 1.4 6.7 2.6 11.6 1.7-9 2.8-16.4 4.4-23.7 12.9-60.8 72.4-124.5 156.8-125.3 85.5-0.8 148.9 66.3 160.8 128.6 5.1 26.3 4.2 52.6 0 78.9-4.2 26.3-11.9 51.5-23.2 75.6-2.5 5.3-2.2 9.1 1 14.1 18.4 28.6 26.6 59.9 25.5 93.9-2.2 71-52.4 134.7-121.5 151.4-96.5 23.2-170.4-34.5-195.3-104.3-4.1-11.3-6-23.2-8.4-36.7z m175.3-124.8c1-4 4.1-6.4 6.4-9.4 24.2-32.1 36.9-68.1 34.1-108.5-2.1-29.5-26.3-50.3-55.7-49.2-29.4 1.1-51.6 23.8-52 53.2 0 2.4 0.1 4.8 0 7.2-2 31.4-19.3 48.5-45.5 50.4-4.8 0.4-9.6 0.8-14.4 0.8-34 0.1-68 0.1-102.1 0-14.9 0-29.6 1.6-43.7 6-66.1 20.4-104.6 65.6-117.3 132.9-2.5 13.3-4.8 27.1-0.4 40.8 6.3 19.6 17.9 34.2 38.6 39.1 21.4 5.1 40.1-0.5 54.9-17.4 9.6-10.9 12.6-23.8 13.3-38 1.9-36.5 21.7-54.8 54.9-54.5 50.9 0.4 101.7 0.1 152.6 0.1 9 0 9.1 0.1 9.2 9.1 0.1 16.5-0.4 33 0.2 49.5 1 26.9 24.7 49.2 52.1 50 28.3 0.8 53.5-20.1 55.3-47.4 1.6-23.6 1.5-47.4-0.1-71.1-1.2-18.3-11.1-31.4-27.9-38.9-4.1-1.8-8.3-3.1-12.5-4.7z m-318.8-55.4c10.9 0 19.9-0.1 28.8 0 4.4 0.1 6.1-1.8 6-6.2-0.1-17.2 0.7-34.4-0.4-51.5-1.4-22.6-13.4-38.9-34.4-47.1-21.5-8.4-41.2-3.6-57.9 12.3-16.7 16-19 35.5-13.1 56.9 5.4 19.7 18.1 30.8 38.1 34.2 11.6 2 23.2 1.1 32.9 1.4z" fill="#FFFFFF" /><path d="M511.9 64h345.5c14.5 0 28.8 1.3 42.6 5.5 30.1 9.2 46 30.8 52.2 60.5 2.5 11.8 3.2 23.8 3.2 35.9 0.2 80.8 0.3 161.6 0.3 242.4 0 147.1 0 294.3-0.3 441.3 0 20.6-1.1 41.4-11.3 60.2-11.3 20.8-26.7 37.3-50.1 44.5-4.2 1.3-8.6 2.8-13 2.8-10 0-19.7 2.5-29.7 2.5-225.5 0-451 0.1-676.5-0.2-18.3 0-37-1.4-54.4-8.8-3.5-1.5-7-2.7-10-5.1-22.2-16.9-37.2-38.1-40.5-66.6-1.2-10.3-1.5-20.6-1.5-30.9 0-229 0.1-457.8 0.2-686.8 0-13.3 0.1-26.8 4.2-39.5 10.9-33.9 34.6-52.4 69.9-56.1 8.2-0.9 16.4-1.4 24.7-1.4 114.8-0.3 229.6-0.2 344.5-0.2z m3.6 569.6c2.4 13.5 4.3 25.4 8.4 36.8 24.9 69.8 98.8 127.5 195.3 104.3 69.1-16.7 119.3-80.3 121.5-151.4 1-34-7.1-65.4-25.5-93.9-3.2-4.9-3.4-8.8-1-14.1 11.3-24.1 19-49.3 23.2-75.6 4.2-26.3 5-52.6 0-78.9-12-62.3-75.3-129.4-160.8-128.6-84.4 0.8-143.9 64.4-156.8 125.3-1.6 7.3-2.7 14.7-4.4 23.7-1.1-5-2-8.3-2.6-11.6-10-67-73.9-126.5-142.9-133-78.5-7.4-137.1 37.3-163.8 90-9.1 18-14 37.2-15.6 57.3-3 37.6 5.2 72.4 26.1 103.9 2.4 3.7 2.5 6.5 0.5 10.3-13.6 26.5-22.4 54.7-25.4 84.3-2.9 27.8-3.7 55.6 4.2 82.9 21.8 75.3 94.3 123.8 172.9 115.1 66.4-7.3 110.8-44.1 136.8-104.4 5.6-13 7.4-26.9 9.9-42.4z" fill="#FB7A24" /><path d="M687.7 512.7c4.2 1.6 8.4 2.9 12.5 4.8 16.8 7.6 26.7 20.6 27.9 38.9 1.5 23.7 1.7 47.4 0.1 71.1-1.8 27.3-27.1 48.2-55.3 47.4-27.4-0.8-51.1-23.1-52.1-50-0.6-16.5-0.1-33-0.2-49.5-0.1-8.9-0.1-9-9.2-9.1-50.9 0-101.7 0.3-152.6-0.1-33.2-0.3-53 18-54.9 54.5-0.7 14.2-3.7 27.1-13.3 38-14.8 16.8-33.5 22.4-54.9 17.4-20.7-4.9-32.4-19.5-38.6-39.1-4.4-13.7-2.1-27.5 0.4-40.8 12.8-67.3 51.3-112.5 117.3-132.9 14.2-4.4 28.9-6 43.7-6h102.1c4.8 0 9.6-0.4 14.4-0.8 26.2-1.9 43.5-19.1 45.5-50.4 0.2-2.4 0-4.8 0-7.2 0.4-29.4 22.6-52.1 52-53.2 29.4-1.1 53.7 19.7 55.7 49.2 2.8 40.4-9.9 76.3-34.1 108.5-2.3 2.9-5.4 5.3-6.4 9.3zM369 457.2c-9.6-0.3-21.3 0.7-32.9-1.3-20-3.4-32.7-14.5-38.1-34.2-5.8-21.4-3.6-40.9 13.1-56.9 16.7-15.9 36.4-20.7 57.9-12.3 21 8.2 33 24.5 34.4 47.1 1.1 17.1 0.2 34.3 0.4 51.5 0 4.3-1.6 6.2-6 6.2-9.1-0.2-18-0.1-28.8-0.1z" fill="#FB7A24" /></svg>